# xmcd
#
# Track frame offsets:
#	150
#	17416
#	31826
#	47778
#
# Disc length: 877 seconds
#
# Revision: 1
# Processed by: cddbd v1.5.2PL0 Copyright (c) Steve Scherf et al.
# Submitted via: audiograbber 1.83.01
#
DISCID=23036b04
DTITLE=хекнг - хекнг
DYEAR=2006
DGENRE=Pop
TTITLE0=циати
TTITLE1=евеис та латиа поу катяеуы
TTITLE2=лиа фыг
TTITLE3=евеис та латиа поу катяеуы (VALENTINO'S BODROOM MIX)
EXTD=
EXTT0=
EXTT1=
EXTT2=
EXTT3=
PLAYORDER=
